<svg xmlns="http://www.w3.org/2000/svg" xmlns:xlink="http://www.w3.org/1999/xlink" width="500" zoomAndPan="magnify" viewBox="0 0 375 149.999998" height="200" preserveAspectRatio="xMidYMid meet" version="1.0"><defs><g/><clipPath id="79bc5ca6ea"><path d="M 11.445312 16.148438 L 129.195312 16.148438 L 129.195312 133.898438 L 11.445312 133.898438 Z M 11.445312 16.148438 " clip-rule="nonzero"/></clipPath></defs><g fill="#000000" fill-opacity="1"><g transform="translate(130.943293, 117.5575)"><g><path d="M 31.265625 -42.625 L 31.265625 0 L 7.453125 0 L 7.453125 -86.71875 L 26.015625 -86.71875 L 60.828125 -42.625 L 60.828125 -86.71875 L 84.640625 -86.71875 L 84.640625 0 L 65.71875 0 Z M 31.265625 -42.625 "/></g></g></g><g fill="#000000" fill-opacity="1"><g transform="translate(211.915066, 117.5575)"><g><path d="M 7.453125 0 L 7.453125 -86.71875 L 40.796875 -86.71875 C 47.960938 -86.71875 54.269531 -85.578125 59.71875 -83.296875 C 65.175781 -81.015625 69.738281 -77.921875 73.40625 -74.015625 C 77.070312 -70.109375 79.835938 -65.523438 81.703125 -60.265625 C 83.578125 -55.015625 84.515625 -49.421875 84.515625 -43.484375 C 84.515625 -36.890625 83.476562 -30.925781 81.40625 -25.59375 C 79.332031 -20.257812 76.378906 -15.695312 72.546875 -11.90625 C 68.722656 -8.125 64.125 -5.191406 58.75 -3.109375 C 53.375 -1.035156 47.390625 0 40.796875 0 Z M 60.34375 -43.484375 C 60.34375 -46.816406 59.894531 -49.867188 59 -52.640625 C 58.101562 -55.410156 56.816406 -57.769531 55.140625 -59.71875 C 53.472656 -61.675781 51.414062 -63.203125 48.96875 -64.296875 C 46.53125 -65.398438 43.804688 -65.953125 40.796875 -65.953125 L 31.265625 -65.953125 L 31.265625 -20.765625 L 40.796875 -20.765625 C 43.890625 -20.765625 46.65625 -21.332031 49.09375 -22.46875 C 51.539062 -23.613281 53.597656 -25.203125 55.265625 -27.234375 C 56.929688 -29.273438 58.191406 -31.675781 59.046875 -34.4375 C 59.910156 -37.207031 60.34375 -40.222656 60.34375 -43.484375 Z M 60.34375 -43.484375 "/></g></g></g><g fill="#000000" fill-opacity="1"><g transform="translate(288.367994, 117.5575)"><g><path d="M 75 -65.953125 L 50.078125 -65.953125 L 50.078125 0 L 26.265625 0 L 26.265625 -65.953125 L 1.21875 -65.953125 L 1.21875 -86.71875 L 75 -86.71875 Z M 75 -65.953125 "/></g></g></g><g clip-path="url(#79bc5ca6ea)"><path fill="#00805d" d="M 70.320312 16.148438 C 37.804688 16.148438 11.445312 42.507812 11.445312 75.023438 C 11.445312 107.542969 37.804688 133.898438 70.320312 133.898438 C 102.835938 133.898438 129.195312 107.542969 129.195312 75.023438 C 129.195312 42.507812 102.835938 16.148438 70.320312 16.148438 Z M 108.359375 63.058594 L 66.136719 105.289062 C 65.273438 106.15625 63.867188 106.15625 63.011719 105.289062 L 56.769531 98.980469 C 55.910156 98.117188 54.503906 96.707031 53.648438 95.832031 L 39.125 80.558594 C 38.699219 80.132812 38.472656 79.535156 38.472656 78.957031 C 38.472656 78.394531 38.699219 77.847656 39.125 77.417969 L 45.488281 71.683594 C 45.921875 71.242188 46.496094 71.023438 47.0625 71.023438 C 47.625 71.03125 48.183594 71.25 48.609375 71.683594 L 63.015625 86.375 C 63.871094 87.25 65.273438 87.25 66.136719 86.375 L 99.007812 53.597656 C 99.871094 52.730469 101.265625 52.730469 102.125 53.597656 L 108.367188 59.902344 C 109.226562 60.765625 109.226562 62.1875 108.359375 63.058594 Z M 108.359375 63.058594 " fill-opacity="1" fill-rule="nonzero"/></g></svg>